<svg width="140" height="151" viewBox="0 0 140 151" fill="none" xmlns="http://www.w3.org/2000/svg">
<path opacity="0.12" d="M70 151C95.4051 151 116 147.866 116 144C116 140.134 95.4051 137 70 137C44.5949 137 24 140.134 24 144C24 147.866 44.5949 151 70 151Z" fill="#1C2541"/>
<mask id="mask0_170_19" style="mask-type:luminance" maskUnits="userSpaceOnUse" x="2" y="2" width="136" height="136">
<path d="M70 138C107.555 138 138 107.555 138 70C138 32.4446 107.555 2 70 2C32.4446 2 2 32.4446 2 70C2 107.555 32.4446 138 70 138Z" fill="white"/>
</mask>
<g mask="url(#mask0_170_19)">
<path d="M70 -10H-10V160H70V-10Z" fill="url(#paint0_linear_170_19)"/>
<path d="M150 -10H70V160H150V-10Z" fill="url(#paint1_linear_170_19)"/>
<path d="M70 -10C54 20 54 120 70 160" stroke="#1C2541" stroke-width="3"/>
<path opacity="0.4" d="M70 138C83.2548 138 94 107.555 94 70C94 32.4446 83.2548 2 70 2C56.7452 2 46 32.4446 46 70C46 107.555 56.7452 138 70 138Z" stroke="#F7F3EA" stroke-width="1.6"/>
<path opacity="0.32" d="M70 138C96.5097 138 118 107.555 118 70C118 32.4446 96.5097 2 70 2C43.4903 2 22 32.4446 22 70C22 107.555 43.4903 138 70 138Z" stroke="#F7F3EA" stroke-width="1.6"/>
<path opacity="0.32" d="M2 36H138" stroke="#F7F3EA" stroke-width="1.6"/>
<path opacity="0.4" d="M2 70H138" stroke="#F7F3EA" stroke-width="1.6"/>
<path opacity="0.32" d="M2 104H138" stroke="#F7F3EA" stroke-width="1.6"/>
</g>
<path d="M70 138C107.555 138 138 107.555 138 70C138 32.4446 107.555 2 70 2C32.4446 2 2 32.4446 2 70C2 107.555 32.4446 138 70 138Z" stroke="#1C2541" stroke-width="4"/>
<path d="M98 6V54L108 42L118 54V6H98Z" fill="#D9643A" stroke="#1C2541" stroke-width="2.5" stroke-linejoin="round"/>
<path d="M108 40.5C110.485 40.5 112.5 38.4853 112.5 36C112.5 33.5147 110.485 31.5 108 31.5C105.515 31.5 103.5 33.5147 103.5 36C103.5 38.4853 105.515 40.5 108 40.5Z" fill="#F7F3EA" stroke="#1C2541" stroke-width="1.5"/>
<defs>
<linearGradient id="paint0_linear_170_19" x1="-10" y1="-10" x2="-10" y2="160" gradientUnits="userSpaceOnUse">
<stop stop-color="#37927D"/>
<stop offset="1" stop-color="#256B5A"/>
</linearGradient>
<linearGradient id="paint1_linear_170_19" x1="70" y1="-10" x2="70" y2="160" gradientUnits="userSpaceOnUse">
<stop stop-color="#EAB565"/>
<stop offset="1" stop-color="#D99A3D"/>
</linearGradient>
</defs>
</svg>
